<svg xmlns="http://www.w3.org/2000/svg" width="35" height="35" viewBox="0 0 35 35">
    <defs>
        <clipPath id="5swfumwbha">
            <path data-name="사각형 18" transform="translate(0 -.2)" style="fill:none" d="M0 0h35v35H0z"/>
        </clipPath>
    </defs>
    <path data-name="패스 2" d="m19.165 30.438 5.329-4.845 4.522 3.876L34.06 24.2" transform="translate(-9.06 -11.364)" style="stroke-width:1.5px;stroke:#292929;stroke-linecap:round;stroke-linejoin:round;fill:none"/>
    <path data-name="선 1" transform="translate(17.042 24.175)" style="stroke-width:1.5px;stroke:#292929;stroke-linecap:round;stroke-linejoin:round;fill:none" d="M0 6.203V0"/>
    <path data-name="선 2" transform="translate(20.42 23.782)" style="stroke-width:1.5px;stroke:#292929;stroke-linecap:round;stroke-linejoin:round;fill:none" d="M4.972 5.403 0 0"/>
    <path data-name="선 3" transform="translate(9.406 23.825)" style="stroke-width:1.5px;stroke:#292929;stroke-linecap:round;stroke-linejoin:round;fill:none" d="M0 5.36 4.932 0"/>
    <path data-name="선 4" transform="translate(17.4 4.822)" style="stroke-width:1.5px;stroke:#292929;stroke-linecap:round;stroke-linejoin:round;fill:none" d="M0 2.377V0"/>
    <path data-name="사각형 17" transform="translate(6.327 8.086)" style="stroke-width:1.5px;stroke:#292929;stroke-linecap:round;stroke-linejoin:round;fill:none" d="M0 0h22.145v15.467H0z"/>
    <path data-name="패스 3" d="M47.1 25.381v-2.168h-2.163" transform="translate(-21.657 -10.774)" style="stroke-width:2px;stroke:#292929;stroke-linecap:round;stroke-linejoin:round;fill:none"/>
    <g data-name="그룹 3">
        <g data-name="그룹 2" style="clip-path:url(#5swfumwbha)" transform="translate(0 .2)">
            <circle data-name="타원 1" cx=".725" cy=".725" r=".725" transform="translate(14.591 13.294)" style="stroke-width:2px;stroke:#292929;stroke-linecap:round;stroke-linejoin:round;fill:none"/>
            <circle data-name="타원 2" cx=".725" cy=".725" r=".725" transform="translate(19.205 17.051)" style="stroke-width:2px;stroke:#292929;stroke-linecap:round;stroke-linejoin:round;fill:none"/>
            <circle data-name="타원 3" cx=".725" cy=".725" r=".725" transform="translate(9.582 18.105)" style="stroke-width:2px;stroke:#292929;stroke-linecap:round;stroke-linejoin:round;fill:none"/>
        </g>
    </g>
</svg>
