<svg xmlns="http://www.w3.org/2000/svg" width="30" height="30" viewBox="0 0 30 30">
    <defs>
        <clipPath id="kw7htw96ua">
            <path data-name="사각형 1736" transform="translate(0 .25)" style="fill:none" d="M0 0h30v30H0z"/>
        </clipPath>
    </defs>
    <g data-name="그룹 1277" style="clip-path:url(#kw7htw96ua)" transform="translate(0 -.25)">
        <path data-name="패스 1079" d="m23.924 13.285-2.406-2.406-2.406 2.406-7.312 7.309v9.889a.675.675 0 0 0 .673.673h5.8v-7.68a3.239 3.239 0 1 1 6.477 0v7.68h5.8a.675.675 0 0 0 .673-.673v-9.889z" transform="translate(-6.393 -5.893)" style="stroke:#292929;stroke-linecap:round;stroke-linejoin:round;stroke-width:1.3px;fill:none"/>
        <path data-name="패스 1080" d="m6.538 23.007 12.128-12.128 12.129 12.128" transform="translate(-3.541 -5.893)" style="stroke:#292929;stroke-linecap:round;stroke-linejoin:round;stroke-width:1.3px;fill:none"/>
        <path data-name="패스 1081" d="M29.173 31.3a3.248 3.248 0 0 0-3.239 3.239v7.68h6.477v-7.68a3.248 3.248 0 0 0-3.238-3.239z" transform="translate(-14.048 -16.954)" style="stroke:#292929;stroke-linecap:round;stroke-linejoin:round;stroke-width:1.3px;fill:none"/>
        <path data-name="패스 1082" d="M46.31 13.511h-4.078v3.025l4.078 4.078z" transform="translate(-22.876 -7.318)" style="stroke:#292929;stroke-linecap:round;stroke-linejoin:round;stroke-width:1.3px;fill:none"/>
    </g>
</svg>
