<svg xmlns="http://www.w3.org/2000/svg" width="35" height="35" viewBox="0 0 35 35">
    <defs>
        <clipPath id="2yzeuoo2va">
            <path data-name="사각형 19" style="fill:none" d="M0 0h35v35H0z"/>
        </clipPath>
    </defs>
    <g data-name="그룹 5" style="clip-path:url(#2yzeuoo2va)">
        <path data-name="패스 4" d="M28.363 39.617c4.09-.728 3.473-7.506 2.464-9.523s-1.681-3.809-1.681-3.809v-3.137H10.477v3.137s-.667 1.78-1.677 3.809-1.625 8.795 2.465 9.523z" transform="translate(-3.781 -10.873)" style="stroke:#292929;stroke-linecap:round;stroke-linejoin:round;stroke-width:1.5px;fill:none"/>
        <path data-name="패스 5" d="M7.872 21.177v-1.121a1.344 1.344 0 0 1 1.345-1.344h21.022a1.344 1.344 0 0 1 1.344 1.344v1.121" transform="translate(-3.697 -8.789)" style="stroke:#292929;stroke-linecap:round;stroke-linejoin:round;stroke-width:1.5px;fill:none"/>
        <path data-name="패스 6" d="M34.136 9.468a1.849 1.849 0 1 1-1.849-1.848 1.849 1.849 0 0 1 1.849 1.848z" transform="translate(-14.297 -3.579)" style="stroke:#292929;stroke-linecap:round;stroke-linejoin:round;stroke-width:1.5px;fill:none"/>
        <path data-name="패스 7" d="M26.743 9.468a1.849 1.849 0 1 1-1.848-1.848 1.849 1.849 0 0 1 1.848 1.848z" transform="translate(-10.824 -3.579)" style="stroke:#292929;stroke-linecap:round;stroke-linejoin:round;stroke-width:1.5px;fill:none"/>
        <path data-name="선 5" transform="translate(17.991 7.739)" style="stroke:#292929;stroke-linecap:round;stroke-linejoin:round;stroke-width:1.5px;fill:none" d="M0 0v2.072"/>
        <path data-name="선 6" transform="translate(14.182 7.739)" style="stroke:#292929;stroke-linecap:round;stroke-linejoin:round;stroke-width:1.5px;fill:none" d="M0 0v2.072"/>
        <path data-name="패스 8" d="M52.233 42.931a5.485 5.485 0 1 1-5.486-5.485 5.486 5.486 0 0 1 5.486 5.485" transform="translate(-19.381 -17.588)" style="fill:#efefef"/>
        <path data-name="패스 9" d="M52.233 42.931a5.485 5.485 0 1 1-5.486-5.485 5.486 5.486 0 0 1 5.486 5.485z" transform="translate(-19.381 -17.588)" style="stroke:#292929;stroke-linecap:round;stroke-linejoin:round;stroke-width:1.5px;fill:none"/>
        <path data-name="패스 10" d="M47.959 42.692h2.474c1.447 0 2.383.748 2.383 2.014v.016c0 1.364-1.044 2.079-2.465 2.079h-.8v1.643h-1.592zm2.359 2.86c.559 0 .912-.3.912-.756v-.016c0-.493-.353-.748-.92-.748h-.756v1.52z" transform="translate(-22.526 -20.052)" style="fill:#292929"/>
    </g>
</svg>
