<svg xmlns="http://www.w3.org/2000/svg" width="30" height="30" viewBox="0 0 30 30">
    <defs>
        <clipPath id="c0xlthfhka">
            <path data-name="사각형 19" style="fill:none" d="M0 0h30v30H0z"/>
        </clipPath>
    </defs>
    <g data-name="그룹 5" style="clip-path:url(#c0xlthfhka)">
        <path data-name="패스 4" d="M24.971 37.324c3.407-.627 2.893-6.461 2.053-8.2s-1.4-3.279-1.4-3.279v-2.7H10.072v2.7s-.556 1.532-1.4 3.279-1.354 7.57 2.053 8.2z" transform="translate(-4.27 -12.988)" style="stroke:#fdba1e;stroke-linecap:round;stroke-linejoin:round;stroke-width:1.3px;fill:#fdba1e"/>
        <path data-name="패스 5" d="M7.872 20.834v-.965a1.139 1.139 0 0 1 1.12-1.157H26.5a1.139 1.139 0 0 1 1.12 1.157v.965" transform="translate(-4.171 -10.577)" style="stroke:#fdba1e;stroke-linecap:round;stroke-linejoin:round;stroke-width:1.3px;fill:none"/>
        <path data-name="패스 6" d="M33.519 9.211a1.541 1.541 0 1 1-1.54-1.591 1.567 1.567 0 0 1 1.54 1.591z" transform="translate(-16.768 -4.548)" style="stroke:#fdba1e;stroke-linecap:round;stroke-linejoin:round;stroke-width:1.3px;fill:none"/>
        <path data-name="패스 7" d="M26.125 9.211a1.541 1.541 0 1 1-1.54-1.591 1.566 1.566 0 0 1 1.54 1.591z" transform="translate(-12.641 -4.548)" style="stroke:#fdba1e;stroke-linecap:round;stroke-linejoin:round;stroke-width:1.3px;fill:none"/>
        <path data-name="선 5" transform="translate(15.21 6.255)" style="stroke:#fdba1e;stroke-linecap:round;stroke-linejoin:round;stroke-width:1.3px;fill:none" d="M0 0v1.784"/>
        <path data-name="선 6" transform="translate(12.038 6.255)" style="stroke:#fdba1e;stroke-linecap:round;stroke-linejoin:round;stroke-width:1.3px;fill:none" d="M0 0v1.784"/>
        <path data-name="패스 8" d="M50.4 42.168a4.572 4.572 0 1 1-4.57-4.722 4.648 4.648 0 0 1 4.57 4.722" transform="translate(-22.811 -20.759)" style="fill:#fff"/>
        <path data-name="패스 9" d="M50.4 42.168a4.572 4.572 0 1 1-4.57-4.722 4.648 4.648 0 0 1 4.57 4.722z" transform="translate(-22.811 -20.759)" style="stroke:#fdba1e;stroke-linecap:round;stroke-linejoin:round;stroke-width:1.3px;fill:none"/>
        <path data-name="패스 10" d="M47.959 42.692h2.061c1.205 0 1.985.644 1.985 1.733v.014c0 1.174-.869 1.79-2.054 1.79h-.664v1.414h-1.328zm1.965 2.462c.466 0 .76-.262.76-.651v-.014c0-.425-.294-.644-.766-.644h-.63v1.309z" transform="translate(-26.549 -23.61)" style="fill:#fdba1e"/>
    </g>
</svg>
