<svg xmlns="http://www.w3.org/2000/svg" width="30" height="30" viewBox="0 0 30 30">
    <defs>
        <clipPath id="o8n3852tva">
            <path data-name="사각형 29" transform="translate(.087 .406)" style="fill:none" d="M0 0h30v30H0z"/>
        </clipPath>
    </defs>
    <g data-name="그룹 8" style="clip-path:url(#o8n3852tva)" transform="translate(-.087 -.406)">
        <path data-name="합치기 6" d="M2553.823-6653.6s-.752-3.3-.965-4.26c-.412-1.842-3.771-2.982-3.771-2.982v-4.632c.6-.266 2.053-.283 2.582-.75.665-1.219 1-1.773 1-1.773h0c.475-1.212-.109-4.593-.109-4.593 1.3.1 2.766 1.686 3.581 2.7l.225-.123q.753-.206 1.472-.353s4.754-.613 7.683.181a6.861 6.861 0 0 1 5.446 6.667c0 5.031-3.031 9.86-3.031 9.86h-3.328v-2.278c-3.657 2.619-7.534.054-7.534.054v2.283z" transform="translate(-2546.132 6679.917)" style="stroke:#fdba1e;stroke-linecap:round;stroke-linejoin:round;stroke-width:1.3px;fill:#fdba1e"/>
        <path data-name="패스 13" d="M14.111 31.345a.565.565 0 1 0 .566-.566.566.566 0 0 0-.566.566" transform="translate(-7.548 -16.464)" style="fill:#fff"/>
        <path data-name="패스 14" d="M53.107 33.931a2.246 2.246 0 0 0 2.978.508 1.267 1.267 0 0 0 .509-.689 1.854 1.854 0 0 0-.016-1.087 2.158 2.158 0 0 0-1.031-1.227 1.06 1.06 0 0 0-.916-.031 1.251 1.251 0 0 0-.6.7 1.435 1.435 0 0 0 .316 1.449 3.238 3.238 0 0 0 .906.727 1.411 1.411 0 0 0 1.044.159 2.234 2.234 0 0 0 1.251-.755 1.444 1.444 0 0 0 .139-1.672.466.466 0 0 0-.8.47 1.1 1.1 0 0 1 .063.121c-.037-.09.007.036.01.047s.019.145.011.03v.112c.014.1.03-.075 0 .02a.926.926 0 0 0-.028.1c-.019.1.048-.066-.008.021-.026.04-.052.084-.073.126-.053.1.062-.057-.017.023-.027.027-.05.056-.076.082s-.055.053-.083.078-.114.083-.026.022a2.452 2.452 0 0 1-.194.124c-.033.019-.067.035-.1.053l-.068.032c.054-.023.057-.025.008-.005-.069.02-.134.046-.2.063-.033.008-.067.013-.1.02-.1.026.1 0 0 0-.05 0-.224-.028-.078.009a.545.545 0 0 0-.076-.017c-.08-.006.1.055.013.006a4.914 4.914 0 0 1-.531-.334c.087.067-.081-.071-.107-.095a2.265 2.265 0 0 1-.162-.165c-.011-.013-.087-.113-.024-.026-.022-.031-.044-.062-.064-.095s-.036-.067-.055-.1c-.022-.048-.022-.045 0 .009-.009-.023-.016-.047-.023-.07s-.026-.141-.013-.021v-.112c-.013-.1-.029.072 0-.03.013-.04.02-.08.036-.118-.036.09.029-.044.033-.05.081-.136-.037.067.046-.065.073-.116-.044.056.04-.034.048-.025.047-.025-.005 0 .053-.012.048-.013-.013 0 .034-.009.128.024.026 0a.952.952 0 0 1 .113.034c-.11-.046.16.113.088.058a1.544 1.544 0 0 1 .2.193c.021.024.042.047.061.072-.041-.052.054.083.064.1.024.039.047.078.068.118 0 .008.066.139.027.045a1.008 1.008 0 0 1 .072.264 1.024 1.024 0 0 1-.056.454c.036-.1-.077.078.011-.014-.031.033-.062.065-.1.1s-.046.039-.011.01a1.167 1.167 0 0 1-.074.048 1.3 1.3 0 0 1-.118.063c.075-.036-.081.028-.1.033a1.279 1.279 0 0 1-.561.046c-.143-.009.079.022-.061-.009-.06-.013-.12-.025-.18-.042s-.087-.028-.131-.041-.057-.021-.015 0q-.041-.017-.081-.038a1.63 1.63 0 0 1-.116-.064c-.015-.009-.153-.108-.081-.05a1.218 1.218 0 0 1-.093-.083c-.014-.014-.119-.143-.059-.06a.478.478 0 0 0-.636-.167.468.468 0 0 0-.167.636" transform="translate(-28.371 -16.751)" style="fill:#fdba1e"/>
        <path data-name="패스 15" d="M37.829 14.227a4.811 4.811 0 1 1-4.811-4.811 4.811 4.811 0 0 1 4.811 4.811" transform="translate(-15.088 -5.037)" style="fill:#fff"/>
        <path data-name="패스 16" d="M37.829 14.227a4.811 4.811 0 1 1-4.811-4.811 4.811 4.811 0 0 1 4.811 4.811z" transform="translate(-15.088 -5.037)" style="fill:#fff;stroke:#fdba1e;stroke-linecap:round;stroke-linejoin:round;stroke-width:1.3px"/>
        <path data-name="패스 17" d="M34.684 14.337h2.17c1.269 0 2.09.656 2.09 1.766v.014c0 1.2-.915 1.824-2.162 1.824h-.7v1.441h-1.4zm2.069 2.508c.49 0 .8-.266.8-.663v-.014c0-.433-.31-.656-.807-.656h-.663v1.333z" transform="translate(-18.553 -7.669)" style="fill:#fdba1e"/>
    </g>
</svg>
