<svg xmlns="http://www.w3.org/2000/svg" width="35" height="35" viewBox="0 0 35 35">
    <defs>
        <clipPath id="wsx048bjaa">
            <path data-name="사각형 36" style="fill:none" d="M0 0h35v35H0z"/>
        </clipPath>
    </defs>
    <g data-name="icon_point_ cooperation">
        <g data-name="그룹 10" style="clip-path:url(#wsx048bjaa)">
            <path data-name="패스 18" d="M50.461 21.285a.707.707 0 0 1-.555-.266l-5.013-6.259a.712.712 0 0 1 .11-1l2.012-1.611a.71.71 0 0 1 1 .11l5.013 6.259a.71.71 0 0 1-.111 1L50.9 21.129a.71.71 0 0 1-.439.156z" transform="translate(-21.211 -5.395)" style="stroke:#292929;stroke-miterlimit:10;stroke-width:1.5px;fill:none"/>
            <path data-name="패스 19" d="M35.822 29.692a.424.424 0 0 1-.3-.12l-7.211-7.031-3.2 2.431a1.61 1.61 0 0 1-.981.33 1.638 1.638 0 0 1-1.3-.642 1.631 1.631 0 0 1 .312-2.279l5.749-4.363c.029-.022.056-.039.082-.057l.042-.027.022-.014a1.154 1.154 0 0 1 .123-.066 1.516 1.516 0 0 1 .226-.089 23.869 23.869 0 0 1 4.74-.473.449.449 0 0 1 .339.161l4.812 6.1a.422.422 0 0 1 .089.227 6.289 6.289 0 0 1-3.355 5.868.428.428 0 0 1-.189.044z" transform="translate(-10.668 -7.906)" style="stroke:#292929;stroke-miterlimit:10;stroke-width:1.5px;fill:none"/>
            <path data-name="패스 20" d="M7.926 23.819a.712.712 0 0 1-.444-.156l-2.011-1.611a.71.71 0 0 1-.11-1l5.012-6.259a.711.711 0 0 1 1-.109l2.01 1.616a.711.711 0 0 1 .11 1l-5.012 6.254a.708.708 0 0 1-.555.265z" transform="translate(-2.468 -6.597)" style="stroke:#292929;stroke-miterlimit:10;stroke-width:1.5px;fill:none"/>
            <path data-name="패스 21" d="M24.814 41.755a1.681 1.681 0 0 0-1.147-.514 1.7 1.7 0 0 0-1.7-1.877c-.021 0-.042.006-.063.006a1.7 1.7 0 0 0-1.7-1.853 1.735 1.735 0 0 0-.409.054 1.707 1.707 0 0 0-2.908-1.058l-1.1 1.1a1.716 1.716 0 0 0 0 2.422 1.688 1.688 0 0 0 1.057.485 1.7 1.7 0 0 0 1.657 2.121c.022 0 .042-.006.064-.006 0 .047-.014.094-.014.141a1.706 1.706 0 0 0 2.6 1.458 1.557 1.557 0 0 0 .435.741 1.715 1.715 0 0 0 2.421 0l.8-.8a1.716 1.716 0 0 0 .007-2.42z" transform="translate(-7.252 -16.783)" style="stroke:#292929;stroke-miterlimit:10;stroke-width:1.5px;fill:none"/>
            <path data-name="선 7" transform="translate(9.511 20.888)" style="stroke:#292929;stroke-miterlimit:10;stroke-width:1.5px;fill:none" d="M0 2.845 3 0"/>
            <path data-name="선 8" transform="translate(11.258 22.68)" style="stroke:#292929;stroke-miterlimit:10;stroke-width:1.5px;fill:none" d="M3.424 0 0 3.177"/>
            <path data-name="선 9" transform="translate(13.908 24.458)" style="stroke:#292929;stroke-miterlimit:10;stroke-width:1.5px;fill:none" d="M0 2.993 2.507 0"/>
            <path data-name="패스 22" d="m30.8 31.246-7.646-7.356-3.2 2.431a1.612 1.612 0 0 1-.982.33 1.636 1.636 0 0 1-1.3-.642 1.63 1.63 0 0 1 .312-2.279l3.568-2.708-.7-.556-.035-.023-.021-.014-.016-.01-.042-.023a.865.865 0 0 0-.114-.044 22.072 22.072 0 0 0-4.192-.483l-4.708 5.878a4.325 4.325 0 0 0 2.117 4.505 1.751 1.751 0 0 1 .232-.294l1.1-1.1a1.7 1.7 0 0 1 2.908 1.058 1.7 1.7 0 0 1 2.108 1.8c.021 0 .041-.006.063-.006a1.7 1.7 0 0 1 1.7 1.877 1.677 1.677 0 0 1 1.147.514 1.714 1.714 0 0 1 0 2.417 1.513 1.513 0 0 0 2.087-.042 2.291 2.291 0 0 0 .485-1.6c.115-.067.17.188.292.117l.314.314a1.51 1.51 0 0 0 2.345-1.874l.057-.034a1.51 1.51 0 0 0 2.121-2.153z" transform="translate(-5.532 -9.129)" style="stroke:#292929;stroke-miterlimit:10;stroke-width:1.5px;fill:none"/>
            <path data-name="선 10" transform="translate(21.282 22.406)" style="stroke-linecap:round;stroke:#292929;stroke-miterlimit:10;stroke-width:1.5px;fill:none" d="M1.865 1.865 0 0"/>
            <path data-name="선 11" transform="translate(18.371 23.805)" style="stroke-linecap:round;stroke:#292929;stroke-miterlimit:10;stroke-width:1.5px;fill:none" d="M2.06 2.06 0 0"/>
        </g>
    </g>
</svg>
