<svg xmlns="http://www.w3.org/2000/svg" width="35" height="35" viewBox="0 0 35 35">
    <defs>
        <clipPath id="5xguy6wvna">
            <path data-name="사각형 29" style="fill:none" d="M0 0h35v35H0z"/>
        </clipPath>
    </defs>
    <g data-name="그룹 8" style="clip-path:url(#5xguy6wvna)">
        <path data-name="패스 11" d="M18.628 19.791s-2.613-3.878-4.8-4.046c0 0 .759 4.384 0 5.479" transform="translate(-6.493 -7.395)" style="stroke:#292929;stroke-linecap:round;stroke-linejoin:round;stroke-width:1.5px;fill:none"/>
        <path data-name="패스 12" d="M14.655 20.708q.858-.235 1.678-.4s5.42-.7 8.76.206c4.043 1.1 6.209 4.179 6.209 7.6 0 5.735-3.455 11.242-3.455 11.242h-3.793v-2.6c-4.171 2.987-8.592.062-8.592.062v2.6h-3.709s-.857-3.766-1.1-4.859c-.469-2.1-4.3-3.4-4.3-3.4v-5.28c.689-.3 2.339-.323 2.944-.857.759-1.386 1.138-2.022 1.138-2.022" transform="translate(-2.984 -9.416)" style="stroke:#292929;stroke-linecap:round;stroke-linejoin:round;stroke-width:1.5px;fill:none"/>
        <path data-name="패스 13" d="M14.111 31.424a.645.645 0 1 0 .645-.645.645.645 0 0 0-.645.645" transform="translate(-6.628 -14.457)" style="fill:#292929"/>
        <path data-name="패스 14" d="M53.117 34.3a2.561 2.561 0 0 0 3.4.579 1.445 1.445 0 0 0 .581-.786 2.114 2.114 0 0 0-.019-1.239 2.461 2.461 0 0 0-1.175-1.4 1.208 1.208 0 0 0-1.044-.036 1.427 1.427 0 0 0-.683.8 1.636 1.636 0 0 0 .36 1.652 3.691 3.691 0 0 0 1.032.829 1.609 1.609 0 0 0 1.191.181 2.548 2.548 0 0 0 1.427-.861 1.646 1.646 0 0 0 .159-1.907.531.531 0 0 0-.916.536 1.258 1.258 0 0 1 .072.138c-.042-.1.008.041.012.053s.022.165.013.034V33c.016.115.034-.086 0 .023a1.055 1.055 0 0 0-.032.118c-.022.117.055-.075-.01.024-.029.045-.059.1-.084.143-.06.111.071-.065-.02.026-.03.03-.057.064-.087.094s-.063.06-.095.089c-.015.013-.13.095-.029.025-.072.05-.144.1-.221.141-.038.021-.076.04-.115.06l-.077.036c.062-.026.065-.028.01-.006-.078.023-.153.052-.233.072-.038.009-.076.014-.113.023-.119.029.114.005 0 0-.057 0-.256-.032-.089.011a.623.623 0 0 0-.087-.019c-.092-.007.111.063.015.006a5.6 5.6 0 0 1-.605-.381c.1.076-.092-.081-.122-.108a2.581 2.581 0 0 1-.185-.188c-.013-.014-.1-.129-.028-.03-.025-.036-.05-.071-.073-.108s-.041-.076-.063-.112c-.025-.055-.025-.051 0 .01l-.027-.08c-.008-.026-.029-.161-.014-.024 0-.042 0-.086-.005-.128-.015-.116-.033.082 0-.034.014-.045.023-.091.041-.135-.041.1.033-.05.037-.057.092-.155-.042.076.052-.074.084-.133-.05.064.046-.039.055-.029.053-.028-.006 0 .06-.014.055-.015-.015 0 .039-.011.146.028.03 0a1.086 1.086 0 0 1 .128.039c-.126-.052.182.129.1.066a1.762 1.762 0 0 1 .229.221c.024.027.048.054.07.082-.047-.059.062.094.073.11.028.044.054.089.078.135 0 .009.075.159.03.051a1.149 1.149 0 0 1 .082.3 1.168 1.168 0 0 1-.064.518c.041-.109-.087.089.012-.016-.036.038-.071.074-.109.109s-.052.044-.013.012c-.028.02-.056.038-.085.055a1.486 1.486 0 0 1-.134.072c.086-.041-.092.032-.112.038a1.458 1.458 0 0 1-.64.052c-.163-.011.09.025-.069-.01-.069-.015-.137-.029-.205-.048-.051-.014-.1-.032-.15-.047s-.065-.024-.018 0q-.047-.02-.092-.043a1.925 1.925 0 0 1-.133-.073c-.017-.01-.175-.124-.093-.057a1.391 1.391 0 0 1-.107-.095c-.016-.016-.135-.163-.067-.069a.545.545 0 0 0-.725-.19.534.534 0 0 0-.19.725" transform="translate(-24.912 -14.708)" style="fill:#292929"/>
        <path data-name="패스 15" d="M39.178 14.9a5.485 5.485 0 1 1-5.486-5.485 5.486 5.486 0 0 1 5.486 5.485" transform="translate(-13.249 -4.423)" style="fill:#fff"/>
        <path data-name="패스 16" d="M39.178 14.9a5.485 5.485 0 1 1-5.486-5.485 5.486 5.486 0 0 1 5.486 5.485z" transform="translate(-13.249 -4.423)" style="stroke:#292929;stroke-linecap:round;stroke-linejoin:round;stroke-width:1.5px;fill:none"/>
        <path data-name="패스 17" d="M34.684 14.337h2.474c1.447 0 2.383.748 2.383 2.014v.016c0 1.364-1.044 2.079-2.465 2.079h-.8v1.643h-1.592zm2.359 2.86c.559 0 .912-.3.912-.756v-.016c0-.493-.353-.748-.92-.748h-.756V17.2z" transform="translate(-16.291 -6.734)" style="fill:#292929"/>
    </g>
</svg>
