<svg xmlns="http://www.w3.org/2000/svg" width="30" height="30" viewBox="0 0 30 30">
    <defs>
        <clipPath id="31tw72jjxa">
            <path data-name="사각형 36" transform="translate(.406 .406)" style="fill:none" d="M0 0h30v30H0z"/>
        </clipPath>
    </defs>
    <g data-name="icon_point_ cooperation_on">
        <g data-name="그룹 10" transform="translate(-.406 -.406)" style="clip-path:url(#31tw72jjxa)">
            <path data-name="패스 18" d="M49.571 19.841a.6.6 0 0 1-.469-.225l-4.233-5.286a.6.6 0 0 1 .093-.843l1.7-1.361a.6.6 0 0 1 .843.093l4.234 5.286a.6.6 0 0 1-.094.843l-1.7 1.36a.6.6 0 0 1-.374.133z" transform="translate(-24.868 -5.864)" style="stroke:#fdba1e;stroke-miterlimit:10;stroke-width:1.3px;fill:#fdba1e"/>
            <path data-name="패스 19" d="M33.751 27.764a.358.358 0 0 1-.25-.1l-6.09-5.938-2.711 2.052a1.359 1.359 0 0 1-.829.278 1.383 1.383 0 0 1-1.1-.542 1.378 1.378 0 0 1 .264-1.925L27.9 17.9c.025-.019.047-.033.069-.048l.031-.019.019-.012a.975.975 0 0 1 .1-.056 1.279 1.279 0 0 1 .191-.076 20.159 20.159 0 0 1 4-.4.379.379 0 0 1 .286.136l4.064 5.151a.356.356 0 0 1 .076.192 5.311 5.311 0 0 1-2.833 4.956.361.361 0 0 1-.152.04z" transform="translate(-12.508 -8.808)" style="stroke:#fdba1e;stroke-miterlimit:10;stroke-width:1.3px;fill:none"/>
            <path data-name="패스 20" d="M7.5 22.375a.6.6 0 0 1-.375-.131l-1.7-1.361a.6.6 0 0 1-.093-.844l4.238-5.286a.6.6 0 0 1 .844-.092l1.7 1.36a.6.6 0 0 1 .093.843l-4.235 5.287a.6.6 0 0 1-.472.224z" transform="translate(-2.893 -7.272)" style="stroke:#fdba1e;stroke-miterlimit:10;stroke-width:1.3px;fill:#fdba1e"/>
            <path data-name="패스 21" d="M23.335 40.863a1.419 1.419 0 0 0-.969-.434 1.434 1.434 0 0 0-1.432-1.585c-.018 0-.035 0-.053.005a1.433 1.433 0 0 0-1.434-1.565 1.466 1.466 0 0 0-.346.046 1.442 1.442 0 0 0-2.456-.893l-.928.928a1.449 1.449 0 0 0 0 2.045 1.426 1.426 0 0 0 .893.41 1.438 1.438 0 0 0 1.4 1.791c.018 0 .036 0 .054-.005 0 .04-.012.079-.012.119a1.441 1.441 0 0 0 2.2 1.231 1.315 1.315 0 0 0 .367.626 1.449 1.449 0 0 0 2.045 0l.674-.674a1.449 1.449 0 0 0-.003-2.045z" transform="translate(-8.502 -19.215)" style="stroke:#fdba1e;stroke-miterlimit:10;stroke-width:1.3px;fill:none"/>
            <path data-name="선 7" transform="translate(8.032 18.198)" style="stroke:#fdba1e;stroke-miterlimit:10;stroke-width:1.3px;fill:none" d="M0 2.402 2.534 0"/>
            <path data-name="선 8" transform="translate(9.508 19.712)" style="stroke:#fdba1e;stroke-miterlimit:10;stroke-width:1.3px;fill:none" d="M2.891 0 0 2.683"/>
            <path data-name="선 9" transform="translate(11.746 21.213)" style="stroke:#fdba1e;stroke-miterlimit:10;stroke-width:1.3px;fill:none" d="M0 2.528 2.118 0"/>
            <path data-name="패스 22" d="m27.824 29.477-6.456-6.212-2.706 2.053a1.362 1.362 0 0 1-.829.278 1.382 1.382 0 0 1-1.1-.542A1.377 1.377 0 0 1 17 23.13l3.013-2.287-.587-.47-.03-.02-.017-.012-.014-.008-.035-.019a.731.731 0 0 0-.1-.037 18.641 18.641 0 0 0-3.541-.408l-3.976 4.964a3.653 3.653 0 0 0 1.788 3.8 1.479 1.479 0 0 1 .2-.248l.927-.928a1.438 1.438 0 0 1 2.456.893 1.432 1.432 0 0 1 1.78 1.519c.018 0 .035-.005.053-.005a1.434 1.434 0 0 1 1.432 1.585 1.417 1.417 0 0 1 .969.434 1.448 1.448 0 0 1 0 2.041 1.278 1.278 0 0 0 1.762-.035 1.935 1.935 0 0 0 .41-1.351c.1-.056.143.159.247.1l.265.265a1.275 1.275 0 0 0 1.98-1.582l.048-.029a1.276 1.276 0 0 0 1.789-1.819z" transform="translate(-6.486 -10.241)" style="fill:#fff;stroke:#fdba1e;stroke-miterlimit:10;stroke-width:1.3px"/>
            <path data-name="선 10" transform="translate(17.974 19.481)" style="stroke-linecap:round;stroke:#fdba1e;stroke-miterlimit:10;stroke-width:1.3px;fill:none" d="M1.575 1.575 0 0"/>
            <path data-name="선 11" transform="translate(15.515 20.662)" style="stroke-linecap:round;stroke:#fdba1e;stroke-miterlimit:10;stroke-width:1.3px;fill:none" d="M1.74 1.74 0 0"/>
        </g>
    </g>
</svg>
