<svg xmlns="http://www.w3.org/2000/svg" width="16" height="16" viewBox="0 0 16 16">
    <path data-name="사각형 220" style="fill:none" d="M0 0h16v16H0z"/>
    <g data-name="그룹 112">
        <g data-name="사각형 213" transform="translate(1 2)" style="stroke:#292929;stroke-width:1.3px;fill:#fff">
            <rect width="14" height="14" rx="2" style="stroke:none"/>
            <rect x=".65" y=".65" width="12.7" height="12.7" rx="1.35" style="fill:none"/>
        </g>
        <path data-name="패스 161" d="M-619 561.714h13" transform="translate(620.5 -556)" style="stroke:#292929;stroke-width:1.3px;fill:none"/>
        <g data-name="그룹 110" transform="translate(-15 -556)">
            <rect data-name="사각형 214" width="2" height="2" rx=".5" transform="translate(19 564)" style="fill:#292929"/>
            <rect data-name="사각형 219" width="2" height="2" rx=".5" transform="translate(19 567)" style="fill:#292929"/>
            <rect data-name="사각형 215" width="2" height="2" rx=".5" transform="translate(22 564)" style="fill:#292929"/>
            <rect data-name="사각형 218" width="2" height="2" rx=".5" transform="translate(22 567)" style="fill:#292929"/>
            <rect data-name="사각형 216" width="2" height="2" rx=".5" transform="translate(25 564)" style="fill:#292929"/>
            <rect data-name="사각형 217" width="2" height="2" rx=".5" transform="translate(25 567)" style="fill:#292929"/>
        </g>
        <g data-name="그룹 111">
            <path data-name="패스 162" d="M-630.312 556.969v1.656" transform="translate(635.812 -556.188)" style="stroke-linecap:round;stroke:#292929;stroke-width:1.3px;fill:none"/>
            <path data-name="패스 163" d="M-630.312 556.969v1.656" transform="translate(640.812 -556.188)" style="stroke-linecap:round;stroke:#292929;stroke-width:1.3px;fill:none"/>
        </g>
    </g>
</svg>
