<svg xmlns="http://www.w3.org/2000/svg" width="30" height="30" viewBox="0 0 30 30">
    <defs>
        <clipPath id="203empjwoa">
            <path data-name="사각형 18" transform="translate(.319 .406)" style="fill:none" d="M0 0h30v30H0z"/>
        </clipPath>
    </defs>
    <path data-name="선 1" transform="translate(14.088 20.031)" style="stroke-width:1.3px;stroke-linecap:round;stroke-linejoin:round;stroke:#fdba1e;fill:none" d="M0 5.244V0"/>
    <path data-name="선 2" transform="translate(16.944 19.699)" style="stroke-width:1.3px;stroke-linecap:round;stroke-linejoin:round;stroke:#fdba1e;fill:none" d="M4.203 4.568 0 0"/>
    <path data-name="선 3" transform="translate(7.633 19.736)" style="stroke-width:1.3px;stroke-linecap:round;stroke-linejoin:round;stroke:#fdba1e;fill:none" d="M0 4.532 4.17 0"/>
    <path data-name="선 4" transform="translate(14.391 3.67)" style="stroke-width:1.3px;stroke-linecap:round;stroke-linejoin:round;stroke:#fdba1e;fill:none" d="M0 2.009V0"/>
    <path data-name="사각형 17" transform="translate(5.03 6.43)" style="fill:#fdba1e;stroke-width:1.3px;stroke-linecap:round;stroke-linejoin:round;stroke:#fdba1e" d="M0 0h18.722v13.076H0z"/>
    <path data-name="패스 3" d="M46.769 25.046v-1.833h-1.832" transform="translate(-25.575 -13.103)" style="stroke:#fff;stroke-width:1.3px;stroke-linecap:round;stroke-linejoin:round;fill:none"/>
    <g data-name="그룹 3">
        <g data-name="그룹 2" style="clip-path:url(#203empjwoa)" transform="translate(-.319 -.406)">
            <circle data-name="타원 1" cx=".613" cy=".613" r=".613" transform="translate(12.335 11.408)" style="stroke:#fff;stroke-linecap:round;stroke-linejoin:round;fill:none"/>
            <circle data-name="타원 2" cx=".613" cy=".613" r=".613" transform="translate(16.235 14.584)" style="stroke:#fff;stroke-linecap:round;stroke-linejoin:round;fill:none"/>
            <circle data-name="타원 3" cx=".613" cy=".613" r=".613" transform="translate(8.101 15.475)" style="stroke:#fff;stroke-linecap:round;stroke-linejoin:round;fill:none"/>
        </g>
    </g>
    <path data-name="패스 2" d="m19.165 29.474 4.505-4.1 3.823 3.277 4.264-4.451" transform="translate(-10.941 -13.754)" style="stroke:#fff;stroke-width:1.3px;stroke-linecap:round;stroke-linejoin:round;fill:none"/>
</svg>
