<svg xmlns="http://www.w3.org/2000/svg" width="30" height="30" viewBox="0 0 30 30">
    <defs>
        <clipPath id="66lug2ufba">
            <path data-name="사각형 1735" transform="translate(0 -.5)" style="fill:none" d="M0 0h30v30H0z"/>
        </clipPath>
    </defs>
    <g data-name="그룹 1276" transform="translate(0 .5)" style="clip-path:url(#66lug2ufba)">
        <path data-name="패스 1074" d="m23.82 13.264-2.385-2.385-2.385 2.385-7.25 7.247v9.805a.669.669 0 0 0 .668.667h5.754v-7.614a3.211 3.211 0 0 1 6.422 0v7.614H30.4a.669.669 0 0 0 .667-.667v-9.805z" transform="translate(-6.439 -6.427)" style="fill:#fdba1e"/>
        <path data-name="패스 1075" d="m23.82 13.264-2.385-2.385-2.385 2.385-7.25 7.247v9.805a.669.669 0 0 0 .668.667h5.754v-7.614a3.211 3.211 0 0 1 6.422 0v7.614H30.4a.669.669 0 0 0 .667-.667v-9.805z" transform="translate(-6.439 -6.427)" style="stroke:#fdba1e;stroke-linecap:round;stroke-linejoin:round;stroke-width:1.3px;fill:none"/>
        <path data-name="패스 1076" d="m6.538 22.9 12.025-12.021L30.588 22.9" transform="translate(-3.567 -6.427)" style="stroke:#fdba1e;stroke-linecap:round;stroke-linejoin:round;stroke-width:1.3px;fill:none"/>
        <path data-name="패스 1077" d="M46.275 13.511h-4.043v3l4.043 4.043z" transform="translate(-23.041 -7.863)" style="fill:#fdba1e"/>
        <path data-name="패스 1078" d="M46.275 13.511h-4.043v3l4.043 4.043z" transform="translate(-23.041 -7.863)" style="stroke:#fdba1e;stroke-linecap:round;stroke-linejoin:round;stroke-width:1.3px;fill:none"/>
    </g>
</svg>
